# xmcd
#
# Track frame offsets:
# 150
# 21480
# 41340
# 63235
# 106977
# 126297
# 147675
# 172680
# 200255
# 221515
#
# Disc length: 3208 seconds
#
#
# Revision: 2
# Processed by: cddbd v1.4PL0 Copyright (c) Steve Scherf et al.
# Submitted via: FreeRIP 2.30 
#
DISCID=8d0c860a
DTITLE=STIBAKTAKHS GIORGOS and XRHSTOS - DROSOSTALIA t' APRILI
DYEAR=2002
DGENRE=
TTITLE0=Drosostalia t'Aprili (Syrto)
TTITLE1=Aygis Drosoula (Syrto)
TTITLE2=O Ntelalis (Syrto)
TTITLE3=Glikoxarazei h Aygh (Kontilies)
TTITLE4=Akriboxaidemeni mou (Syrto)
TTITLE5=Mono o 8ios (Amanes-Syrto)
TTITLE6=To Kyma (Amanes)
TTITLE7=Ouranoperpataris (Kontilies)
TTITLE8=Tou Eroda ta Vasana (Syrto)
TTITLE9=Erodiko Tragoudi
EXTD=PARAGWGH - STELIOS AERAKIS
EXTT0=
EXTT1=
EXTT2=
EXTT3=
EXTT4=
EXTT5=
EXTT6=
EXTT7=
EXTT8=
EXTT9=
PLAYORDER=
